<?xml version="1.0" encoding="utf-8"?>
<!-- Generator: Adobe Illustrator 18.1.1, SVG Export Plug-In . SVG Version: 6.00 Build 0)  -->
<svg version="1.1" id="Layer_1" xmlns="http://www.w3.org/2000/svg" xmlns:xlink="http://www.w3.org/1999/xlink" x="0px" y="0px"
	 viewBox="118 218 370 370" style="enable-background:new 118 218 370 370;" xml:space="preserve">
<g>
	<g>
		<path style="fill:#1A8CE4;" d="M262.9,239.9c64,0,116,41.9,116,93.6h12.2c0-58.1-57.5-105.9-128.2-105.9s-128.2,47.7-128.2,106.2
			c0,28.2,12.2,55.1,34.3,74.4l-26.3,45.9c-1.2,2.1-0.9,5.2,0.6,7c1.2,1.2,2.8,2.1,4.6,2.1c0.9,0,1.5,0,2.1-0.3l69.8-28.2
			c6.4,1.8,12.9,3.1,19.6,4l1.5-12.2c-6.7-0.9-13.5-2.4-19.6-4.3c-1.2-0.3-2.8-0.3-4,0.3L162.2,445l19.9-35.2c1.5-2.8,0.9-6.1-1.5-8
			c-21.4-17.1-33.7-41.9-33.7-68.2C146.9,282.2,198.9,239.9,262.9,239.9z M450.1,516.6c17.7-15.9,27.2-36.1,27.2-59.4
			c0-50.2-49-92.7-106.8-92.7S263.8,407,263.8,457.2c0,51.1,46.5,94.2,101.9,94.2l0,0c14.1,0,27.8-2.8,41-8.3l55.1,20.8
			c0.6,0.3,1.5,0.3,2.1,0.3c1.8,0,3.4-0.6,4.6-2.1c1.8-1.8,2.1-4.6,0.9-7L450.1,516.6z M408.8,530.6c-0.6-0.3-1.5-0.3-2.1-0.3
			c-0.9,0-1.8,0.3-2.4,0.6c-12.2,5.5-25.1,8.3-38.2,8.3l0,0c-48.7,0-89.4-37.6-89.4-81.7c0-43.5,43.1-80.2,94.2-80.2
			s94.2,36.7,94.2,80.2c0,21.1-8.9,38.9-26.3,52.9c-2.1,1.8-3.1,4.9-1.5,7.7l14.7,29.1L408.8,530.6z"/>
	</code>
</code>
<rect y="90" style="fill:none;" width="612" height="612"/>
</svg>
